# xmcd
#
# Track frame offsets:
#	150
#	12079
#	28239
#	46258
#	65793
#	86265
#	100396
#	123567
#	140001
#	155191
#
# Disc length: 2394 seconds
#
# Revision: 1
# Processed by: cddbd v1.5.1PL0 Copyright (c) Steve Scherf et al.
# Submitted via: audiograbber 1.83.01
#
DISCID=8b09580a
DTITLE=Clarias - Lines
DYEAR=2005
DGENRE=Rock
TTITLE0=The Freedom
TTITLE1=Standing on Top of the World
TTITLE2=All the Best (Wonderful Things)
TTITLE3=Heavyweights
TTITLE4=If She Had Some Time for Me
TTITLE5=What I Cannot See
TTITLE6=Shine
TTITLE7=Fantasy
TTITLE8=My Time
TTITLE9=Fear of the Worst
EXTD=
EXTT0=
EXTT1=
EXTT2=
EXTT3=
EXTT4=
EXTT5=
EXTT6=
EXTT7=
EXTT8=
EXTT9=
PLAYORDER=
